<?xml version="1.0" encoding="UTF-8" standalone="no"?>
<!DOCTYPE svg PUBLIC "-//W3C//DTD SVG 1.1//EN" "http://www.w3.org/Graphics/SVG/1.1/DTD/svg11.dtd">
<svg width="100%" height="100%" viewBox="0 0 300 47" version="1.1" xmlns="http://www.w3.org/2000/svg" xmlns:xlink="http://www.w3.org/1999/xlink" xml:space="preserve" xmlns:serif="http://www.serif.com/" style="fill-rule:evenodd;clip-rule:evenodd;stroke-linejoin:round;stroke-miterlimit:2;">
    <path d="M0,23C-0,10.383 10.383,0 23,0C35.617,-0 46,10.383 46,23C46,35.617 35.617,46 23,46C10.383,46 0,35.617 0,23M23,42.7C33.802,42.7 42.69,33.812 42.69,23.01C42.69,12.208 33.802,3.32 23,3.32C12.202,3.32 3.315,12.202 3.31,23C3.31,23.003 3.31,23.007 3.31,23.01C3.31,33.812 12.198,42.7 23,42.7L23,42.7" style="fill:rgb(1,94,171);fill-rule:nonzero;"/>
    <path d="M24.28,37.1C25.673,38.304 27.454,38.967 29.296,38.967C33.503,38.967 36.966,35.505 36.966,31.297C36.966,27.09 33.503,23.627 29.296,23.627C28.095,23.627 26.912,23.909 25.84,24.45L25.84,32.13C25.84,35.26 24.76,36.51 24.28,37.13" style="fill:rgb(1,94,171);fill-rule:nonzero;"/>
    <path d="M36.78,26.13C39.08,24.744 40.49,22.247 40.49,19.561C40.49,15.353 37.028,11.891 32.82,11.891C28.613,11.891 25.15,15.353 25.15,19.561C25.15,19.952 25.18,20.343 25.24,20.73L32.54,23.11C34.285,23.529 35.804,24.604 36.78,26.11" style="fill:rgb(1,94,171);fill-rule:nonzero;"/>
    <path d="M30.22,10.85C29.382,7.43 26.291,5.006 22.77,5.006C18.563,5.006 15.1,8.468 15.1,12.676C15.1,15.111 16.26,17.405 18.22,18.85C19.187,19.556 20.308,20.022 21.49,20.21L26,14C27.83,11.47 29.44,11.09 30.18,10.9" style="fill:rgb(1,94,171);fill-rule:nonzero;"/>
    <path d="M13.67,12.37C13.456,12.352 13.24,12.343 13.025,12.343C8.823,12.343 5.365,15.801 5.365,20.003C5.365,24.205 8.823,27.663 13.025,27.663C15.885,27.663 18.517,26.061 19.83,23.52L15.32,17.31C13.48,14.77 13.62,13.12 13.67,12.37" style="fill:rgb(1,94,171);fill-rule:nonzero;"/>
    <path d="M10,28.59C9.608,29.526 9.406,30.53 9.406,31.545C9.406,35.741 12.86,39.195 17.056,39.195C21.253,39.195 24.706,35.741 24.706,31.545C24.706,29.534 23.913,27.601 22.5,26.17L15.2,28.55C12.2,29.55 10.7,28.87 10,28.55" style="fill:rgb(1,94,171);fill-rule:nonzero;"/>
    <path d="M160.92,20.1C166.4,16.43 169.68,14.41 169.68,13.23C169.675,12.651 169.199,12.175 168.62,12.17L145.82,12.17L145.82,14.26L161.18,14.26C159.53,15.996 157.641,17.488 155.57,18.69L155.57,21.42L144.45,21.42L144.45,23.52L155.57,23.52L155.57,26.65C155.57,29.45 153.75,32.91 151.57,34.99L157.9,34.99C158.81,34.09 160.96,31.54 160.96,26.65L160.96,23.55L172,23.55L172,21.45L160.92,21.45L160.92,20.1Z" style="fill:rgb(1,94,171);fill-rule:nonzero;"/>
    <path d="M78.13,12.58L66.13,12.58C65.642,12.58 65.24,12.982 65.24,13.47L65.24,34.14C65.24,34.628 65.642,35.03 66.13,35.03L78.13,35.03C78.618,35.03 79.02,34.628 79.02,34.14L79.02,13.47C79.02,12.982 78.618,12.58 78.13,12.58M73.67,32.29L70.54,32.29L70.54,15.29L73.67,15.29L73.67,32.29Z" style="fill:rgb(1,94,171);fill-rule:nonzero;"/>
    <path d="M108.06,21.26L85.06,21.26C84.572,21.26 84.17,21.662 84.17,22.15C84.17,22.15 84.17,31.08 84.17,31.08C84.17,31.563 84.567,31.96 85.05,31.96C85.053,31.96 85.057,31.96 85.06,31.96L87.69,31.96C86.786,33.248 85.576,34.293 84.17,35L90.69,35C91.71,34.153 92.579,33.138 93.26,32L99.86,32C100.537,33.141 101.407,34.156 102.43,35L109,35C107.58,34.311 106.353,33.28 105.43,32L108.06,32C108.063,32 108.067,32 108.07,32C108.553,32 108.95,31.603 108.95,31.12C108.95,31.12 108.95,22.15 108.95,22.15C108.95,21.662 108.548,21.26 108.06,21.26M89.52,23.35L103.6,23.35L103.6,24.26L89.52,24.26L89.52,23.35ZM89.52,26.16L103.6,26.16L103.6,27.07L89.52,27.07L89.52,26.16ZM89.52,28.96L103.6,28.96L103.6,29.88L89.52,29.88L89.52,28.96Z" style="fill:rgb(1,94,171);fill-rule:nonzero;"/>
    <path d="M108.78,12.58L98,12.58C97.512,12.58 97.11,12.982 97.11,13.47C97.11,13.47 97.11,19.2 97.11,19.2C97.11,19.683 97.507,20.08 97.99,20.08C97.993,20.08 97.997,20.08 98,20.08L108.81,20.08C108.813,20.08 108.817,20.08 108.82,20.08C109.303,20.08 109.7,19.683 109.7,19.2C109.7,19.2 109.7,13.47 109.7,13.47C109.7,12.982 109.298,12.58 108.81,12.58M104.94,17.93L101.87,17.93L101.87,14.73L104.94,14.73L104.94,17.93Z" style="fill:rgb(1,94,171);fill-rule:nonzero;"/>
    <path d="M63.39,15.19L58.06,15.19C58.12,14.06 58.15,12.92 58.15,11.8L53.39,11.8C53.39,12.93 53.39,14.06 53.31,15.19L49.8,15.19L49.8,17.74L53.16,17.74C52.53,26 50.69,33.34 48.89,35L54.24,35C55.35,33.69 57.24,26.08 57.9,17.72L58.9,17.72L58.9,35L64.25,35L64.25,16C64.25,15.512 63.848,15.11 63.36,15.11" style="fill:rgb(1,94,171);fill-rule:nonzero;"/>
    <path d="M90.72,15.91L91.54,15.91L91.54,20.54L96.1,20.54L96.1,14.25C96.1,14.247 96.1,14.243 96.1,14.24C96.1,13.757 95.703,13.36 95.22,13.36C95.22,13.36 91.31,13.36 91.31,13.36C91.374,12.842 91.408,12.322 91.41,11.8L87,11.8C86.998,12.323 86.955,12.844 86.87,13.36L83.19,13.36L83.19,15.91L86.12,15.91C85.315,17.664 84.161,19.236 82.73,20.53L88.08,20.53C89.236,19.165 90.131,17.599 90.72,15.91" style="fill:rgb(1,94,171);fill-rule:nonzero;"/>
    <path d="M119,17.28L124.22,17.28L124.22,22.28L129.83,22.28L129.83,17.28L135,17.28L135,21.59L140.28,21.59L140.28,16.08C140.28,16.077 140.28,16.073 140.28,16.07C140.28,15.587 139.883,15.19 139.4,15.19C139.4,15.19 129.79,15.19 129.79,15.19L129.79,14.28L139.41,14.28L139.41,12.19L114.58,12.19L114.58,14.28L124.21,14.28L124.21,15.19L114.6,15.19C114.112,15.19 113.71,15.592 113.71,16.08L113.71,21.59L119,21.59L119,17.28Z" style="fill:rgb(1,94,171);fill-rule:nonzero;"/>
    <path d="M129.82,31.9L139.1,31.9C139.103,31.9 139.107,31.9 139.11,31.9C139.598,31.9 140,31.498 140,31.01C140,31.007 140,31.003 140,31L140,23.9C140,23.412 139.598,23.01 139.11,23.01C139.11,23.01 114.92,23.01 114.92,23.01C114.437,23.01 114.04,23.407 114.04,23.89C114.04,23.893 114.04,23.897 114.04,23.9L114.04,31C114.04,31.003 114.04,31.007 114.04,31.01C114.04,31.493 114.437,31.89 114.92,31.89C114.92,31.89 124.21,31.89 124.21,31.89L124.21,33C124.21,34 125.12,35.06 127.05,35.06L141.14,35.06L141.14,32.93L129.82,32.93L129.82,31.9ZM134.64,29.81L129.82,29.81L129.82,28.51L134.64,28.51L134.64,29.81ZM134.64,26.42L129.82,26.42L129.82,25.11L134.64,25.11L134.64,26.42ZM119.38,25.11L124.21,25.11L124.21,26.42L119.38,26.42L119.38,25.11ZM119.38,28.51L124.21,28.51L124.21,29.81L119.38,29.81L119.38,28.51Z" style="fill:rgb(1,94,171);fill-rule:nonzero;"/>
    <rect x="119.51" y="20.41" width="4.17" height="1.18" style="fill:rgb(1,94,171);"/>
    <rect x="119.51" y="18.19" width="4.17" height="1.17" style="fill:rgb(1,94,171);"/>
    <rect x="130.34" y="20.41" width="4.18" height="1.18" style="fill:rgb(1,94,171);"/>
    <rect x="130.34" y="18.19" width="4.18" height="1.17" style="fill:rgb(1,94,171);"/>
    <path d="M200.22,24.46L204.27,24.46L204.27,22.37L199.27,22.37L199.27,19L203.82,19L203.82,16.89L199.27,16.89L199.27,11.8L193.92,11.8L193.92,16.89L191.82,16.89L193.46,11.8L189.76,11.8L188.19,16.65C188.078,16.972 188.021,17.31 188.02,17.65C188.025,18.381 188.619,18.984 189.35,19L193.92,19L193.92,22.41L188.92,22.41L188.92,24.5L192.92,24.5C191.941,26.358 190.549,27.966 188.85,29.2L188.85,25.83C186.998,24.048 185.591,21.855 184.74,19.43L184.74,19.17L187.62,19.17L187.62,17.08L184.74,17.08L184.74,11.8L179.39,11.8L179.39,17.08L175.76,17.08L175.76,19.17L179.39,19.17L179.39,19.8C178.561,22.012 177.323,24.047 175.74,25.8L175.74,32.44C177.164,31.312 178.397,29.961 179.39,28.44L179.39,35L184.74,35L184.74,27.46C185.706,28.936 186.893,30.255 188.26,31.37L188.26,35C189.52,35 192.74,31.7 193.87,30.36L193.87,35L199.22,35L199.22,29.8C200.46,31.901 202.172,33.685 204.22,35.01L204.22,28.7C202.443,27.752 201.008,26.268 200.12,24.46" style="fill:rgb(1,94,171);fill-rule:nonzero;"/>
    <path d="M218.18,26L222.11,26L222.11,23.55L208.93,23.55L208.93,26L212.83,26L212.83,32C211.57,32 210.27,32.07 208.93,32.07L208.93,34.55C213.535,34.51 218.125,34.007 222.63,33.05L222.63,31.05C221.4,31.28 219.88,31.48 218.18,31.63L218.18,26Z" style="fill:rgb(1,94,171);fill-rule:nonzero;"/>
    <path d="M228.27,19.17L234,19.17C235.4,19.17 235.62,17.87 235.62,17.08L235.62,12.3L230.3,12.3L230.3,17.08L227.81,17.08C227.503,15.512 227.346,13.918 227.34,12.32L222.19,12.32C222.198,13.915 222.332,15.506 222.59,17.08L208.48,17.08L208.48,19.17L223,19.17C224.289,24.829 226.622,30.197 229.88,35L236.8,35C235.07,33.38 230.3,26.9 228.27,19.15" style="fill:rgb(1,94,171);fill-rule:nonzero;"/>
    <rect x="239.29" y="20.22" width="27.46" height="2.09" style="fill:rgb(1,94,171);"/>
    <path d="M239.29,27.33L243.89,27.33L240.89,32.19C240.22,33.3 240,35 242.08,35L264,35C266.06,35 265.87,33.28 265.18,32.17L262.18,27.31L266.79,27.31L266.79,25.24L239.29,25.24L239.29,27.33ZM259.43,32.94L246.61,32.94L250,27.33L256,27.33L259.43,32.94Z" style="fill:rgb(1,94,171);fill-rule:nonzero;"/>
    <path d="M253.01,13.53L258.57,18.72L266.34,18.72L258.45,12.32L247.59,12.32L239.7,18.72L247.46,18.72L253.01,13.53Z" style="fill:rgb(1,94,171);fill-rule:nonzero;"/>
    <path d="M294.34,32.47L294.34,22.35L299.13,22.35L299.13,19.81L294.34,19.81L294.34,12.52L288.99,12.52L288.99,19.81L284.2,19.81L284.2,22.35L288.99,22.35L288.99,32.47L283.33,32.47L283.33,35.02L300,35.02L300,32.47L294.34,32.47Z" style="fill:rgb(1,94,171);fill-rule:nonzero;"/>
    <path d="M284.76,28.38L280.62,21.49L282.47,18.79C283.65,17.02 282.67,15.79 281.25,15.79L279.73,15.79L279.73,12.52L274.39,12.52L274.39,15.78L270.15,15.78L270.15,18.32L276.8,18.32L269.5,29L274.39,29L274.39,35L279.73,35L279.73,25.44L281.49,28.38L284.76,28.38Z" style="fill:rgb(1,94,171);fill-rule:nonzero;"/>
</svg>
